<svg xmlns="http://www.w3.org/2000/svg" xmlns:xlink="http://www.w3.org/1999/xlink" width="500" zoomAndPan="magnify" viewBox="0 0 375 374.999991" height="500" preserveAspectRatio="xMidYMid meet" version="1.0"><defs><g/><clipPath id="0e4e7d7e2b"><path d="M 152.578125 85.871094 L 222.328125 85.871094 L 222.328125 141.371094 L 152.578125 141.371094 Z M 152.578125 85.871094 " clip-rule="nonzero"/></clipPath></defs><rect x="-37.5" width="450" fill="#ffffff" y="-37.499999" height="449.999989" fill-opacity="1"/><rect x="-37.5" width="450" fill="#ffffff" y="-37.499999" height="449.999989" fill-opacity="1"/><rect x="-37.5" width="450" fill="#ffffff" y="-37.499999" height="449.999989" fill-opacity="1"/><g fill="#000000" fill-opacity="1"><g transform="translate(34.402429, 209.624986)"><g><path d="M 32.265625 1.078125 C 24.046875 1.023438 17.382812 -1.566406 12.28125 -6.703125 C 7.175781 -11.835938 4.625 -18.585938 4.625 -26.953125 C 4.625 -35.316406 7.175781 -42.078125 12.28125 -47.234375 C 17.382812 -52.398438 24.046875 -54.984375 32.265625 -54.984375 C 39.347656 -54.984375 45.582031 -53.234375 50.96875 -49.734375 L 52.515625 -38.890625 L 51.828125 -38.890625 C 50.691406 -43.296875 48.414062 -46.691406 45 -49.078125 C 41.59375 -51.472656 37.347656 -52.671875 32.265625 -52.671875 C 25.742188 -52.671875 20.46875 -50.304688 16.4375 -45.578125 C 12.40625 -40.859375 10.390625 -34.648438 10.390625 -26.953125 C 10.390625 -19.253906 12.40625 -13.054688 16.4375 -8.359375 C 20.46875 -3.660156 25.742188 -1.285156 32.265625 -1.234375 C 35.597656 -1.234375 38.765625 -1.820312 41.765625 -3 C 44.773438 -4.1875 47.410156 -5.832031 49.671875 -7.9375 L 49.671875 -21.5625 C 49.671875 -22.6875 49.320312 -23.546875 48.625 -24.140625 C 47.9375 -24.734375 46.972656 -25.03125 45.734375 -25.03125 L 44.5 -25.03125 L 44.5 -25.796875 L 59.59375 -25.796875 L 59.59375 -25.03125 L 58.4375 -25.03125 C 57.15625 -25.03125 56.179688 -24.734375 55.515625 -24.140625 C 54.847656 -23.546875 54.539062 -22.6875 54.59375 -21.5625 L 54.59375 -8.859375 C 53.257812 -7.109375 51.664062 -5.539062 49.8125 -4.15625 C 47.96875 -2.769531 45.492188 -1.550781 42.390625 -0.5 C 39.285156 0.550781 35.910156 1.078125 32.265625 1.078125 Z M 32.265625 1.078125 "/></g></g></g><g fill="#000000" fill-opacity="1"><g transform="translate(96.381264, 209.624986)"><g><path d="M 5.625 -0.765625 C 6.957031 -0.765625 8.097656 -1.238281 9.046875 -2.1875 C 9.992188 -3.144531 10.492188 -4.289062 10.546875 -5.625 L 10.546875 -48.734375 C 10.390625 -49.972656 9.847656 -51.015625 8.921875 -51.859375 C 8.003906 -52.703125 6.90625 -53.125 5.625 -53.125 L 4.703125 -53.125 L 4.625 -53.90625 L 27.1875 -53.90625 C 28.769531 -53.90625 30.5 -54.054688 32.375 -54.359375 C 34.25 -54.671875 35.570312 -54.976562 36.34375 -55.28125 L 36.34375 -45.578125 L 35.578125 -45.578125 L 35.578125 -46.96875 C 35.578125 -48.195312 35.148438 -49.25 34.296875 -50.125 C 33.453125 -51 32.441406 -51.460938 31.265625 -51.515625 L 15.546875 -51.515625 L 15.546875 -27.71875 L 28.5625 -27.71875 C 29.59375 -27.769531 30.46875 -28.15625 31.1875 -28.875 C 31.90625 -29.59375 32.265625 -30.488281 32.265625 -31.5625 L 32.265625 -32.640625 L 33.03125 -32.640625 L 33.03125 -20.484375 L 32.265625 -20.484375 L 32.265625 -21.640625 C 32.265625 -22.660156 31.914062 -23.53125 31.21875 -24.25 C 30.53125 -24.96875 29.671875 -25.351562 28.640625 -25.40625 L 15.546875 -25.40625 L 15.546875 -2.390625 L 26.5625 -2.390625 C 30.363281 -2.390625 33.265625 -3.234375 35.265625 -4.921875 C 37.265625 -6.617188 38.929688 -9.132812 40.265625 -12.46875 L 41.046875 -12.46875 L 36.578125 0 L 4.625 0 L 4.625 -0.765625 Z M 5.625 -0.765625 "/></g></g></g><g fill="#000000" fill-opacity="1"><g transform="translate(141.344805, 209.624986)"><g><path d="M 69.296875 -0.765625 L 70.53125 -0.765625 L 70.53125 0 L 53.828125 0 L 53.828125 -0.6875 L 54.984375 -0.6875 C 55.847656 -0.6875 56.585938 -1.03125 57.203125 -1.71875 C 57.828125 -2.414062 58.085938 -3.175781 57.984375 -4 L 54.515625 -42.734375 L 38.34375 -6.78125 C 36.90625 -3.644531 36.035156 -1.023438 35.734375 1.078125 L 34.953125 1.078125 L 15.25 -41.65625 L 11.9375 -4 C 11.832031 -3.175781 12.085938 -2.414062 12.703125 -1.71875 C 13.316406 -1.03125 14.035156 -0.6875 14.859375 -0.6875 L 16.09375 -0.6875 L 16.09375 0 L 1.15625 0 L 1.15625 -0.765625 L 2.390625 -0.765625 C 3.828125 -0.765625 5.070312 -1.203125 6.125 -2.078125 C 7.175781 -2.953125 7.804688 -4.132812 8.015625 -5.625 L 13.78125 -54.984375 L 14.546875 -54.984375 L 36.03125 -8.546875 L 57.0625 -54.984375 L 57.75 -54.984375 L 63.671875 -5.625 C 63.929688 -3.570312 64.960938 -2.132812 66.765625 -1.3125 C 67.523438 -0.945312 68.367188 -0.765625 69.296875 -0.765625 Z M 69.296875 -0.765625 "/></g></g></g><g fill="#000000" fill-opacity="1"><g transform="translate(213.563612, 209.624986)"><g><path d="M 69.296875 -0.765625 L 70.53125 -0.765625 L 70.53125 0 L 53.828125 0 L 53.828125 -0.6875 L 54.984375 -0.6875 C 55.847656 -0.6875 56.585938 -1.03125 57.203125 -1.71875 C 57.828125 -2.414062 58.085938 -3.175781 57.984375 -4 L 54.515625 -42.734375 L 38.34375 -6.78125 C 36.90625 -3.644531 36.035156 -1.023438 35.734375 1.078125 L 34.953125 1.078125 L 15.25 -41.65625 L 11.9375 -4 C 11.832031 -3.175781 12.085938 -2.414062 12.703125 -1.71875 C 13.316406 -1.03125 14.035156 -0.6875 14.859375 -0.6875 L 16.09375 -0.6875 L 16.09375 0 L 1.15625 0 L 1.15625 -0.765625 L 2.390625 -0.765625 C 3.828125 -0.765625 5.070312 -1.203125 6.125 -2.078125 C 7.175781 -2.953125 7.804688 -4.132812 8.015625 -5.625 L 13.78125 -54.984375 L 14.546875 -54.984375 L 36.03125 -8.546875 L 57.0625 -54.984375 L 57.75 -54.984375 L 63.671875 -5.625 C 63.929688 -3.570312 64.960938 -2.132812 66.765625 -1.3125 C 67.523438 -0.945312 68.367188 -0.765625 69.296875 -0.765625 Z M 69.296875 -0.765625 "/></g></g></g><g fill="#000000" fill-opacity="1"><g transform="translate(285.782418, 209.624986)"><g><path d="M 55.140625 -0.765625 L 55.75 -0.765625 L 55.75 0 L 38.421875 0 L 38.421875 -0.765625 L 39.109375 -0.765625 C 40.191406 -0.765625 41 -1.109375 41.53125 -1.796875 C 42.070312 -2.492188 42.34375 -3.148438 42.34375 -3.765625 C 42.34375 -4.390625 42.242188 -5.007812 42.046875 -5.625 L 37.109375 -18.71875 L 16.328125 -18.71875 L 11.171875 -5.546875 C 10.960938 -4.929688 10.859375 -4.328125 10.859375 -3.734375 C 10.859375 -3.140625 11.125 -2.492188 11.65625 -1.796875 C 12.195312 -1.109375 13.007812 -0.765625 14.09375 -0.765625 L 14.78125 -0.765625 L 14.78125 0 L -0.6875 0 L -0.6875 -0.765625 L 0 -0.765625 C 1.28125 -0.765625 2.535156 -1.175781 3.765625 -2 C 5.003906 -2.820312 6.007812 -4.03125 6.78125 -5.625 L 24.171875 -47.046875 C 26.078125 -51.203125 27.03125 -53.847656 27.03125 -54.984375 L 27.71875 -54.984375 L 48.359375 -5.625 C 49.078125 -4.03125 50.050781 -2.820312 51.28125 -2 C 52.507812 -1.175781 53.796875 -0.765625 55.140625 -0.765625 Z M 17.25 -21.015625 L 36.1875 -21.015625 L 26.953125 -45.734375 Z M 17.25 -21.015625 "/></g></g></g><g clip-path="url(#0e4e7d7e2b)"><path fill="#000000" d="M 169.515625 88.328125 L 173.855469 99.292969 L 154.992188 99.292969 C 154.917969 99.292969 154.851562 99.304688 154.785156 99.320312 L 169.558594 87.667969 C 169.453125 87.863281 169.425781 88.105469 169.515625 88.328125 Z M 219.964844 99.292969 L 201.449219 99.292969 L 205.445312 88.308594 C 205.527344 88.089844 205.5 87.859375 205.394531 87.667969 L 220.167969 99.320312 C 220.101562 99.304688 220.035156 99.292969 219.964844 99.292969 Z M 220.652344 99.703125 L 220.722656 99.757812 L 220.722656 99.761719 L 220.695312 99.792969 C 220.683594 99.761719 220.667969 99.730469 220.652344 99.703125 Z M 200.898438 100.863281 L 219.816406 100.863281 L 188.707031 138.550781 Z M 174.441406 100.863281 L 186.632812 138.554688 L 155.152344 100.863281 Z M 186.929688 87.476562 L 175.3125 98.695312 L 170.980469 87.753906 C 170.929688 87.628906 170.847656 87.523438 170.75 87.445312 L 186.972656 87.445312 Z M 199.992188 98.691406 L 188.015625 87.46875 L 187.980469 87.445312 L 204.203125 87.445312 C 204.101562 87.53125 204.015625 87.640625 203.96875 87.773438 Z M 199.246094 100.863281 L 187.667969 136.648438 L 176.09375 100.863281 Z M 187.484375 89.125 L 198.335938 99.292969 L 176.957031 99.292969 Z M 154.230469 99.761719 L 154.230469 99.757812 L 154.304688 99.703125 C 154.285156 99.730469 154.269531 99.761719 154.257812 99.792969 Z M 221.660156 98.5 L 206.085938 86.210938 C 205.808594 85.992188 205.464844 85.875 205.109375 85.875 L 169.84375 85.875 C 169.488281 85.875 169.144531 85.992188 168.867188 86.210938 L 153.253906 98.527344 C 152.832031 98.863281 152.609375 99.390625 152.667969 99.925781 C 152.699219 100.25 152.835938 100.550781 153.042969 100.789062 L 186.464844 140.808594 C 186.765625 141.164062 187.207031 141.371094 187.671875 141.371094 L 187.679688 141.371094 C 188.148438 141.371094 188.589844 141.160156 188.886719 140.800781 L 221.921875 100.777344 C 222.15625 100.503906 222.296875 100.148438 222.296875 99.761719 C 222.296875 99.242188 222.046875 98.785156 221.660156 98.5 " fill-opacity="1" fill-rule="nonzero"/></g></svg>