<svg xmlns="http://www.w3.org/2000/svg" xmlns:xlink="http://www.w3.org/1999/xlink" width="500" zoomAndPan="magnify" viewBox="0 0 375 149.999998" height="200" preserveAspectRatio="xMidYMid meet" version="1.0"><defs><g/><clipPath id="a62243669e"><path d="M 148.28125 17.515625 L 209.03125 17.515625 L 209.03125 66.265625 L 148.28125 66.265625 Z M 148.28125 17.515625 " clip-rule="nonzero"/></clipPath></defs><rect x="-37.5" width="450" fill="#ffffff" y="-15" height="179.999997" fill-opacity="1"/><rect x="-37.5" width="450" fill="#ffffff" y="-15" height="179.999997" fill-opacity="1"/><rect x="-37.5" width="450" fill="#ffffff" y="-15" height="179.999997" fill-opacity="1"/><g fill="#000000" fill-opacity="1"><g transform="translate(45.078724, 125.59148)"><g><path d="M 28.171875 0.9375 C 20.992188 0.894531 15.175781 -1.363281 10.71875 -5.84375 C 6.257812 -10.332031 4.03125 -16.226562 4.03125 -23.53125 C 4.03125 -30.832031 6.257812 -36.734375 10.71875 -41.234375 C 15.175781 -45.742188 20.992188 -48 28.171875 -48 C 34.359375 -48 39.804688 -46.476562 44.515625 -43.4375 L 45.859375 -33.953125 L 45.25 -33.953125 C 44.257812 -37.804688 42.273438 -40.773438 39.296875 -42.859375 C 36.316406 -44.941406 32.609375 -45.984375 28.171875 -45.984375 C 22.472656 -45.984375 17.863281 -43.921875 14.34375 -39.796875 C 10.832031 -35.671875 9.078125 -30.25 9.078125 -23.53125 C 9.078125 -16.8125 10.832031 -11.398438 14.34375 -7.296875 C 17.863281 -3.191406 22.472656 -1.117188 28.171875 -1.078125 C 31.085938 -1.078125 33.851562 -1.59375 36.46875 -2.625 C 39.09375 -3.65625 41.390625 -5.085938 43.359375 -6.921875 L 43.359375 -18.828125 C 43.359375 -19.816406 43.054688 -20.566406 42.453125 -21.078125 C 41.847656 -21.585938 41.007812 -21.84375 39.9375 -21.84375 L 38.859375 -21.84375 L 38.859375 -22.53125 L 52.046875 -22.53125 L 52.046875 -21.84375 L 51.03125 -21.84375 C 49.90625 -21.84375 49.050781 -21.585938 48.46875 -21.078125 C 47.894531 -20.566406 47.628906 -19.816406 47.671875 -18.828125 L 47.671875 -7.734375 C 46.503906 -6.210938 45.113281 -4.84375 43.5 -3.625 C 41.882812 -2.414062 39.71875 -1.351562 37 -0.4375 C 34.289062 0.476562 31.347656 0.9375 28.171875 0.9375 Z M 28.171875 0.9375 "/></g></g></g><g fill="#000000" fill-opacity="1"><g transform="translate(99.205659, 125.59148)"><g><path d="M 4.90625 -0.671875 C 6.070312 -0.671875 7.066406 -1.082031 7.890625 -1.90625 C 8.722656 -2.738281 9.164062 -3.738281 9.21875 -4.90625 L 9.21875 -42.5625 C 9.082031 -43.632812 8.609375 -44.539062 7.796875 -45.28125 C 6.992188 -46.019531 6.03125 -46.390625 4.90625 -46.390625 L 4.09375 -46.390625 L 4.03125 -47.0625 L 23.734375 -47.0625 C 25.117188 -47.0625 26.628906 -47.195312 28.265625 -47.46875 C 29.898438 -47.738281 31.054688 -48.007812 31.734375 -48.28125 L 31.734375 -39.796875 L 31.0625 -39.796875 L 31.0625 -41.015625 C 31.0625 -42.085938 30.691406 -43.003906 29.953125 -43.765625 C 29.210938 -44.523438 28.328125 -44.929688 27.296875 -44.984375 L 13.578125 -44.984375 L 13.578125 -24.203125 L 24.9375 -24.203125 C 25.832031 -24.242188 26.59375 -24.578125 27.21875 -25.203125 C 27.851562 -25.835938 28.171875 -26.625 28.171875 -27.5625 L 28.171875 -28.5 L 28.84375 -28.5 L 28.84375 -17.890625 L 28.171875 -17.890625 L 28.171875 -18.890625 C 28.171875 -19.785156 27.867188 -20.546875 27.265625 -21.171875 C 26.660156 -21.804688 25.910156 -22.144531 25.015625 -22.1875 L 13.578125 -22.1875 L 13.578125 -2.078125 L 23.203125 -2.078125 C 26.515625 -2.078125 29.046875 -2.816406 30.796875 -4.296875 C 32.546875 -5.773438 34 -7.972656 35.15625 -10.890625 L 35.828125 -10.890625 L 31.9375 0 L 4.03125 0 L 4.03125 -0.671875 Z M 4.90625 -0.671875 "/></g></g></g><g fill="#000000" fill-opacity="1"><g transform="translate(138.472915, 125.59148)"><g><path d="M 60.515625 -0.671875 L 61.59375 -0.671875 L 61.59375 0 L 47 0 L 47 -0.609375 L 48 -0.609375 C 48.757812 -0.609375 49.410156 -0.910156 49.953125 -1.515625 C 50.492188 -2.117188 50.71875 -2.78125 50.625 -3.5 L 47.609375 -37.3125 L 33.484375 -5.921875 C 32.222656 -3.179688 31.460938 -0.894531 31.203125 0.9375 L 30.53125 0.9375 L 13.3125 -36.375 L 10.421875 -3.5 C 10.328125 -2.78125 10.550781 -2.117188 11.09375 -1.515625 C 11.632812 -0.910156 12.257812 -0.609375 12.96875 -0.609375 L 14.046875 -0.609375 L 14.046875 0 L 1.015625 0 L 1.015625 -0.671875 L 2.078125 -0.671875 C 3.335938 -0.671875 4.425781 -1.050781 5.34375 -1.8125 C 6.257812 -2.570312 6.8125 -3.601562 7 -4.90625 L 12.03125 -48 L 12.703125 -48 L 31.46875 -7.46875 L 49.828125 -48 L 50.421875 -48 L 55.609375 -4.90625 C 55.828125 -3.113281 56.722656 -1.859375 58.296875 -1.140625 C 58.960938 -0.828125 59.703125 -0.671875 60.515625 -0.671875 Z M 60.515625 -0.671875 "/></g></g></g><g fill="#000000" fill-opacity="1"><g transform="translate(201.542553, 125.59148)"><g><path d="M 60.515625 -0.671875 L 61.59375 -0.671875 L 61.59375 0 L 47 0 L 47 -0.609375 L 48 -0.609375 C 48.757812 -0.609375 49.410156 -0.910156 49.953125 -1.515625 C 50.492188 -2.117188 50.71875 -2.78125 50.625 -3.5 L 47.609375 -37.3125 L 33.484375 -5.921875 C 32.222656 -3.179688 31.460938 -0.894531 31.203125 0.9375 L 30.53125 0.9375 L 13.3125 -36.375 L 10.421875 -3.5 C 10.328125 -2.78125 10.550781 -2.117188 11.09375 -1.515625 C 11.632812 -0.910156 12.257812 -0.609375 12.96875 -0.609375 L 14.046875 -0.609375 L 14.046875 0 L 1.015625 0 L 1.015625 -0.671875 L 2.078125 -0.671875 C 3.335938 -0.671875 4.425781 -1.050781 5.34375 -1.8125 C 6.257812 -2.570312 6.8125 -3.601562 7 -4.90625 L 12.03125 -48 L 12.703125 -48 L 31.46875 -7.46875 L 49.828125 -48 L 50.421875 -48 L 55.609375 -4.90625 C 55.828125 -3.113281 56.722656 -1.859375 58.296875 -1.140625 C 58.960938 -0.828125 59.703125 -0.671875 60.515625 -0.671875 Z M 60.515625 -0.671875 "/></g></g></g><g fill="#000000" fill-opacity="1"><g transform="translate(264.612192, 125.59148)"><g><path d="M 48.140625 -0.671875 L 48.671875 -0.671875 L 48.671875 0 L 33.546875 0 L 33.546875 -0.671875 L 34.15625 -0.671875 C 35.09375 -0.671875 35.796875 -0.972656 36.265625 -1.578125 C 36.734375 -2.179688 36.96875 -2.75 36.96875 -3.28125 C 36.96875 -3.820312 36.878906 -4.363281 36.703125 -4.90625 L 32.40625 -16.34375 L 14.25 -16.34375 L 9.75 -4.84375 C 9.5625 -4.300781 9.46875 -3.769531 9.46875 -3.25 C 9.46875 -2.738281 9.703125 -2.179688 10.171875 -1.578125 C 10.648438 -0.972656 11.359375 -0.671875 12.296875 -0.671875 L 12.90625 -0.671875 L 12.90625 0 L -0.609375 0 L -0.609375 -0.671875 L 0 -0.671875 C 1.113281 -0.671875 2.207031 -1.03125 3.28125 -1.75 C 4.363281 -2.46875 5.238281 -3.519531 5.90625 -4.90625 L 21.109375 -41.078125 C 22.765625 -44.710938 23.59375 -47.019531 23.59375 -48 L 24.203125 -48 L 42.21875 -4.90625 C 42.84375 -3.519531 43.691406 -2.46875 44.765625 -1.75 C 45.847656 -1.03125 46.972656 -0.671875 48.140625 -0.671875 Z M 15.0625 -18.359375 L 31.59375 -18.359375 L 23.53125 -39.9375 Z M 15.0625 -18.359375 "/></g></g></g><g clip-path="url(#a62243669e)"><path fill="#000000" d="M 163.035156 19.675781 L 166.816406 29.304688 L 150.382812 29.304688 C 150.320312 29.304688 150.261719 29.316406 150.207031 29.332031 L 163.074219 19.09375 C 162.980469 19.265625 162.957031 19.476562 163.035156 19.675781 Z M 206.972656 29.304688 L 190.847656 29.304688 L 194.332031 19.65625 C 194.402344 19.464844 194.378906 19.261719 194.285156 19.09375 L 207.152344 29.328125 C 207.09375 29.316406 207.035156 29.304688 206.972656 29.304688 Z M 207.574219 29.664062 L 207.636719 29.714844 L 207.613281 29.746094 C 207.601562 29.71875 207.589844 29.691406 207.574219 29.664062 Z M 190.367188 30.683594 L 206.84375 30.683594 L 179.75 63.789062 Z M 167.324219 30.683594 L 177.945312 63.792969 L 150.523438 30.683594 Z M 178.203125 18.925781 L 168.082031 28.78125 L 164.308594 19.167969 C 164.265625 19.058594 164.195312 18.96875 164.109375 18.898438 L 178.242188 18.898438 Z M 189.582031 28.773438 L 179.148438 18.917969 L 179.117188 18.898438 L 193.246094 18.898438 C 193.160156 18.972656 193.085938 19.070312 193.042969 19.1875 Z M 188.929688 30.683594 L 178.847656 62.117188 L 168.765625 30.683594 Z M 178.6875 20.375 L 188.136719 29.304688 L 169.515625 29.304688 Z M 149.722656 29.714844 L 149.785156 29.664062 C 149.769531 29.691406 149.757812 29.714844 149.746094 29.742188 Z M 208.453125 28.605469 L 194.886719 17.816406 C 194.644531 17.621094 194.347656 17.515625 194.039062 17.515625 L 163.320312 17.515625 C 163.011719 17.515625 162.710938 17.621094 162.472656 17.816406 L 148.871094 28.632812 C 148.503906 28.925781 148.308594 29.390625 148.359375 29.859375 C 148.390625 30.144531 148.507812 30.410156 148.6875 30.621094 L 177.796875 65.769531 C 178.058594 66.085938 178.445312 66.265625 178.851562 66.265625 L 178.855469 66.265625 C 179.261719 66.265625 179.648438 66.082031 179.910156 65.765625 L 208.679688 30.609375 C 208.882812 30.371094 209.007812 30.058594 209.007812 29.714844 C 209.007812 29.261719 208.789062 28.859375 208.453125 28.605469 " fill-opacity="1" fill-rule="nonzero"/></g></svg>